Coordinates
version=1
nRows=27
nColumns=38
inDegrees=no

Units are S.I. units (second, meters, Newtons, ...)
If the header above contains a line with 'inDegrees', this indicates whether rotational values are in degrees (yes) or radians (no).

endheader
time	pelvis_tilt	pelvis_list	pelvis_rotation	pelvis_tx	pelvis_ty	pelvis_tz	hip_flexion_r	hip_adduction_r	hip_rotation_r	knee_angle_r	ankle_angle_r	subtalar_angle_r	mtp_angle_r	hip_flexion_l	hip_adduction_l	hip_rotation_l	knee_angle_l	ankle_angle_l	subtalar_angle_l	mtp_angle_l	lumbar_extension	lumbar_bending	lumbar_rotation	arm_flex_r	arm_add_r	arm_rot_r	elbow_flex_r	pro_sup_r	wrist_flex_r	wrist_dev_r	arm_flex_l	arm_add_l	arm_rot_l	elbow_flex_l	pro_sup_l	wrist_flex_l	wrist_dev_l
0.87	-2.96357	1.36283	-1.7087	0.677543	0.572934	1.05596	-0.378064	-0.116904	-0.0887107	0.598406	-0.324031	0	0	0.0101329	-0.0120442	-0.0653379	0.069066	-0.273264	0	0	-0.452684	0.0320103	0.117453	0.321557	-0.761079	1.15825	1.10584	0.456214	0	0	-0.02679	-0.41412	0.334033	0.930499	1.06586	0	0
0.88	-2.95191	1.3581	-1.72331	0.674471	0.585757	1.05587	-0.384044	-0.126382	-0.0851645	0.610989	-0.346508	0	0	0.00154354	-0.0063115	-0.0661178	0.0761135	-0.292167	0	0	-0.453601	0.0262378	0.118877	0.311946	-0.759477	1.15072	1.10449	0.462387	0	0	-0.0331264	-0.415088	0.333004	0.93439	1.06803	0	0
0.89	-2.93892	1.35391	-1.73887	0.671272	0.598599	1.05596	-0.387663	-0.136527	-0.0814839	0.62571	-0.372017	0	0	-0.00752057	-0.000331984	-0.0689992	0.0827252	-0.30975	0	0	-0.45378	0.0204671	0.119843	0.302232	-0.757381	1.1429	1.10218	0.468523	0	0	-0.0390656	-0.415622	0.332148	0.937045	1.06959	0	0
0.9	-2.92583	1.35149	-1.75389	0.667909	0.61138	1.05608	-0.387214	-0.146513	-0.0770095	0.643333	-0.400316	0	0	-0.0145381	0.00509715	-0.073282	0.0897488	-0.326567	0	0	-0.451913	0.015417	0.120384	0.292612	-0.75494	1.13518	1.09882	0.474651	0	0	-0.0444145	-0.415441	0.331365	0.93835	1.07084	0	0
0.91	-2.91075	1.35109	-1.76963	0.664344	0.624086	1.05623	-0.382795	-0.155895	-0.0722508	0.66347	-0.430501	0	0	-0.0180686	0.00967947	-0.0776303	0.100175	-0.341378	0	0	-0.44763	0.0108747	0.119927	0.283137	-0.751725	1.12779	1.09402	0.480883	0	0	-0.0490336	-0.414899	0.331059	0.938355	1.07215	0	0
0.92	-2.89163	1.35214	-1.78639	0.660447	0.636891	1.05661	-0.375686	-0.16495	-0.0700603	0.684627	-0.46461	0	0	-0.0178943	0.0135584	-0.0796374	0.116722	-0.351532	0	0	-0.441141	0.00674357	0.116797	0.273818	-0.746795	1.12139	1.08676	0.487744	0	0	-0.0528992	-0.414413	0.331837	0.936472	1.07378	0	0
0.93	-2.87163	1.35306	-1.80353	0.656555	0.64952	1.05745	-0.366057	-0.174186	-0.0670986	0.707245	-0.508846	0	0	-0.015808	0.016528	-0.0818668	0.138641	-0.356696	0	0	-0.435282	0.00256245	0.113267	0.265418	-0.740861	1.11553	1.07777	0.497222	0	0	-0.0552834	-0.413566	0.333721	0.933015	1.07508	0	0
0.94	-2.85516	1.35271	-1.81762	0.652783	0.661838	1.05883	-0.355201	-0.182753	-0.0621687	0.731877	-0.55408	0	0	-0.0140401	0.0183364	-0.0849972	0.1638	-0.355926	0	0	-0.432009	-0.00105326	0.110457	0.258924	-0.735484	1.11123	1.06884	0.50602	0	0	-0.0559787	-0.412068	0.336527	0.928508	1.07567	0	0
0.95	-2.84351	1.3521	-1.82732	0.649083	0.673915	1.06052	-0.342312	-0.189808	-0.0558311	0.758213	-0.601127	0	0	-0.0129836	0.0192609	-0.0894752	0.189445	-0.350531	0	0	-0.429903	-0.0034123	0.108462	0.25394	-0.730775	1.10832	1.05988	0.513195	0	0	-0.0553959	-0.409697	0.340177	0.922556	1.07588	0	0
0.96	-2.83749	1.35167	-1.83181	0.645345	0.68584	1.0624	-0.327168	-0.195435	-0.0486534	0.786304	-0.650666	0	0	-0.014183	0.0198833	-0.0959608	0.212144	-0.342126	0	0	-0.428089	-0.00401039	0.10708	0.250355	-0.727125	1.10716	1.05137	0.519487	0	0	-0.0543541	-0.406473	0.344325	0.91569	1.07577	0	0
0.97	-2.83866	1.35016	-1.82916	0.641547	0.697499	1.06454	-0.311417	-0.199599	-0.0410633	0.81628	-0.69651	0	0	-0.020301	0.020613	-0.104208	0.22899	-0.334181	0	0	-0.428425	-0.00276143	0.105808	0.248711	-0.725746	1.10767	1.04531	0.523476	0	0	-0.0530772	-0.403017	0.348231	0.909809	1.07548	0	0
0.98	-2.8443	1.34855	-1.82238	0.637732	0.708889	1.06671	-0.294139	-0.201877	-0.0309641	0.85036	-0.698132	0	0	-0.0300343	0.0218571	-0.114854	0.239855	-0.327392	0	0	-0.429635	-0.000150346	0.104835	0.248544	-0.726751	1.1092	1.04208	0.525333	0	0	-0.0519077	-0.399332	0.35132	0.905341	1.07485	0	0
0.99	-2.85461	1.34768	-1.81112	0.633871	0.720044	1.06878	-0.274845	-0.201763	-0.019509	0.885178	-0.698132	0	0	-0.0414507	0.0230776	-0.127641	0.246755	-0.3199	0	0	-0.430644	0.00425828	0.104284	0.249365	-0.729945	1.11146	1.04135	0.525975	0	0	-0.0504589	-0.395491	0.354708	0.901683	1.07321	0	0
1	-2.86963	1.34754	-1.79533	0.630061	0.730884	1.07073	-0.25353	-0.199303	-0.00732283	0.919861	-0.698132	0	0	-0.0533514	0.0236004	-0.141506	0.251791	-0.311652	0	0	-0.431667	0.010246	0.104034	0.251748	-0.734859	1.11533	1.04268	0.525449	0	0	-0.048559	-0.391747	0.358606	0.8988	1.07082	0	0
1.01	-2.88916	1.34733	-1.77521	0.626452	0.741312	1.07263	-0.231316	-0.194305	0.00592652	0.953325	-0.698132	0	0	-0.0658542	0.022936	-0.154514	0.255933	-0.30288	0	0	-0.433749	0.0171645	0.103779	0.256574	-0.740445	1.12162	1.04495	0.524207	0	0	-0.0462823	-0.388611	0.362684	0.897048	1.06855	0	0
1.02	-2.91018	1.34694	-1.75422	0.623129	0.751483	1.07451	-0.208524	-0.187579	0.0198756	0.985033	-0.698132	0	0	-0.0787714	0.021311	-0.166796	0.25878	-0.295009	0	0	-0.436458	0.024018	0.103723	0.263519	-0.74606	1.13044	1.04737	0.523204	0	0	-0.0438947	-0.385983	0.366479	0.895844	1.06641	0	0
1.03	-2.92906	1.34717	-1.73361	0.619857	0.761696	1.07631	-0.186406	-0.179713	0.0302596	1.01317	-0.698132	0	0	-0.0906529	0.0189891	-0.175303	0.26026	-0.289422	0	0	-0.437925	0.0307055	0.101548	0.269538	-0.749849	1.13717	1.04815	0.520324	0	0	-0.042104	-0.384206	0.369818	0.894597	1.06331	0	0
1.04	-2.94803	1.34701	-1.71294	0.616801	0.771704	1.07815	-0.165528	-0.170293	0.0408977	1.03805	-0.698132	0	0	-0.102591	0.0155508	-0.181809	0.260089	-0.28679	0	0	-0.440159	0.037059	0.0989747	0.276536	-0.753067	1.14432	1.04869	0.517482	0	0	-0.0405979	-0.382955	0.372338	0.894234	1.05962	0	0
1.05	-2.96777	1.34628	-1.69172	0.613947	0.781496	1.08001	-0.145561	-0.159665	0.0520323	1.0606	-0.698132	0	0	-0.114807	0.0111342	-0.186103	0.258926	-0.28622	0	0	-0.443481	0.0432523	0.0962153	0.284202	-0.756063	1.15099	1.04972	0.515415	0	0	-0.0394376	-0.382109	0.373599	0.895186	1.05648	0	0
1.06	-2.98745	1.34523	-1.67068	0.61124	0.791191	1.08185	-0.125833	-0.148608	0.062588	1.08103	-0.698132	0	0	-0.127251	0.0064056	-0.189335	0.257247	-0.28643	0	0	-0.447223	0.0493214	0.0932647	0.292721	-0.759218	1.15824	1.05157	0.513727	0	0	-0.0388201	-0.381571	0.373914	0.897179	1.0535	0	0
1.07	-3.00611	1.34425	-1.65024	0.608629	0.800897	1.08363	-0.105991	-0.137983	0.0707182	1.0984	-0.69763	0	0	-0.139764	0.00191102	-0.192529	0.255413	-0.286606	0	0	-0.450573	0.055242	0.089866	0.30074	-0.762083	1.16444	1.05377	0.512465	0	0	-0.038782	-0.381398	0.373619	0.899769	1.05161	0	0
1.08	-3.02396	1.34371	-1.6308	0.60614	0.81063	1.08526	-0.0856923	-0.127328	0.0784741	1.11391	-0.662825	0	0	-0.152253	-0.00214078	-0.197485	0.253731	-0.28578	0	0	-0.453141	0.0610289	0.0866956	0.30861	-0.765037	1.17068	1.05652	0.509076	0	0	-0.0388526	-0.381164	0.372995	0.902371	1.04975	0	0
1.09	-3.04204	1.34409	-1.61111	0.603681	0.820385	1.08673	-0.0647033	-0.116313	0.0858862	1.12521	-0.624812	0	0	-0.164084	-0.0058877	-0.203702	0.25261	-0.283405	0	0	-0.454349	0.0671108	0.0838316	0.315597	-0.767682	1.1763	1.05881	0.505838	0	0	-0.038309	-0.38066	0.373338	0.903771	1.04794	0	0
1.1	-3.06176	1.34548	-1.58967	0.601246	0.830141	1.08801	-0.0430536	-0.104824	0.0926353	1.13222	-0.586743	0	0	-0.174871	-0.00993371	-0.210989	0.252119	-0.279725	0	0	-0.454235	0.0738427	0.0813246	0.322702	-0.770275	1.18312	1.06038	0.505912	0	0	-0.0370431	-0.379571	0.374587	0.903591	1.0452	0	0
1.11	-3.08251	1.3476	-1.56696	0.598826	0.839884	1.0891	-0.0212426	-0.0937243	0.0969637	1.13473	-0.553237	0	0	-0.184721	-0.0142044	-0.217976	0.251674	-0.275901	0	0	-0.453148	0.0809996	0.0789896	0.327474	-0.772399	1.18617	1.06099	0.505349	0	0	-0.0352639	-0.377896	0.376395	0.902038	1.04228	0	0
1.12	-3.10288	1.35048	-1.54479	0.596435	0.849627	1.08996	0.000923889	-0.0835949	0.0994623	1.13378	-0.518515	0	0	-0.193579	-0.0182008	-0.22413	0.250859	-0.271896	0	0	-0.45102	0.0880954	0.0771907	0.330691	-0.774404	1.18767	1.06122	0.504108	0	0	-0.0330592	-0.375744	0.378933	0.899206	1.03919	0	0
1.13	-3.12226	1.35328	-1.52388	0.594133	0.859299	1.09069	0.0226	-0.0744909	0.100808	1.12868	-0.489899	0	0	-0.202192	-0.0218177	-0.228915	0.249256	-0.268957	0	0	-0.449054	0.0947915	0.0759157	0.333268	-0.776549	1.18828	1.06172	0.502664	0	0	-0.030687	-0.373566	0.381557	0.896367	1.03655	0	0
